<?xml version="1.0" standalone="no"?>
<!DOCTYPE svg PUBLIC "-//W3C//DTD SVG 1.1//EN" "http://www.w3.org/Graphics/SVG/1.1/DTD/svg11.dtd">
<svg width="100%" height="100%" version="1.1" xmlns="http://www.w3.org/2000/svg">
    <!-- <path d="M150 80 L250 80
       M150 80 Q200 50,250 80 " style="stroke:grey;stroke-width:2;fill:white"></path> -->
    
    <!-- <path d="M120 100 
    Q100 100,100 120
    L100 280 
    Q100 300, 120 300  
    L280 300  
    Q 300 300,300 280
    L 300 120
    Q 300 100,280 100
    z" style="stroke:grey;stroke-width:2;fill:white"> </path> -->
    <!--
    垂直方向的电池
    (x=100,y=100)坐标,(w=100,h=250)宽高,d=16圆角度
    电池头部
    M x+(w/4) y-20 
    Q  x+(w/2) y-50,x+(w*3/4) y-20 
    z
    电池底部电量
    M x+d,y
    Q x y,x y+d
    L x y+h-d
    Q x y+h , x+d y+h
    L x+w-d y+h
    Q w+x y+h ,w+x y+h-d
    L x+w y+d
    Q x+w y ,x+w-d y
    Z
    电池填充电量
    p=10


    -->
    <path d="M 125 90 
    Q  150 60,175 90 
    z" style="stroke:grey;stroke-width:2;fill:white"></path>
    <path d="
    M 116,100
    Q 100 100,100 116
    L 100 334
    Q 100 350 , 116 350
    L 184 350
    Q 200 350 ,200 334
    L 200 116
    Q 200 100 ,184 100
    z" style="stroke:grey;stroke-width:2;fill:white"> </path>
</svg>